{"title":"G-Force (2009) (MPEG-4)(IPONE)(Dutch) 2Lions-Team","uid":5172330,"size":1035360337,"categoryP":"video","categoryS":"handheld","magnet":"?xt=urn:btih:8930fc126c8e4b515fbc4c0d8062eecbba55676b&amp;dn=G-Force+%282009%29+%28MPEG-4%29%28IPONE%29%28Dutch%29+2Lions-Team&amp;tr=udp%3A%2F%2Ftracker.openbittorrent.com%3A80&amp;tr=udp%3A%2F%2Fopen.demonii.com%3A1337&amp;tr=udp%3A%2F%2Ftracker.coppersurfer.tk%3A6969&amp;tr=udp%3A%2F%2Fexodus.desync.com%3A6969","seeders":0,"leechers":0,"uploader":"Pioen","files":-1,"time":1258758712,"description":"G-Force (2009) (MPEG-4)(IPONE)(Dutch) Lions-Team \n\n\n\n\n \n\nVanaf 24 november in de videotheek\n\nDe Amerikaanse overheid heeft besloten om dieren te trainen om in de spionage te werken. Het lot van de wereld komt in de handen terecht van twee cavia's, Darwin en Juarez, wanneer zij op pad worden gestuurd om een plan te stoppen van een gestoorde miljardair. Hierbij worden ze bijgestaan door de cavia Blaster, de hamster Bucky, de vlieg Mooch en computerspecialist Speckles, een mol.\n\n\n\n\n\nEnglish\n\nThe story is about a team of trained secret agent guinea pigs that takes on a mission for the US government. A specially trained squad of guinea pigs is dispatched to stop a diabolical billionaire, who plans to taking over the world with household appliances\n\n\n\n\n\n\n\nMoviemeter info:\n\n\nSpotinformatie \nCategorie : Beeld \nFormaat : MPEG-4\nBron : Retail\n\nFormat                           : MPEG-4\nFormat profile                   : Base Media\nCodec ID                         : isom\nFile size                        : 987 MiB\nDuration                         : 1h 24mn\nOverall bit rate                 : 1 630 Kbps\n\n\nVideo\nID                               : 1\nFormat                           : MPEG-4 Visual\nFormat profile                   : Simple@L1\nFormat settings, BVOP            : No\nFormat settings, QPel            : No\nFormat settings, GMC             : No warppoints\nFormat settings, Matrix          : Default (H.263)\nCodec ID                         : 20\nDuration                         : 1h 24mn\nBit rate mode                    : Variable\nBit rate                         : 1 498 Kbps\nWidth                            : 720 pixels\nHeight                           : 406 pixels\nDisplay aspect ratio             : 16/9\nFrame rate mode                  : Constant\nFrame rate                       : 25.000 fps\nResolution                       : 24 bits\nColorimetry                      : 4:2:0\nScan type                        : Progressive\nBits/(Pixel*Frame)               : 0.205\nStream size                      : 907 MiB (92%)\nWriting library                  : Lavc51.40.4\n\n\nAudio\nID                               : 2\nFormat                           : AAC\nFormat/Info                      : Advanced Audio Codec\nFormat version                   : Version 4\nFormat profile                   : LC\nFormat settings, SBR             : No\nCodec ID                         : 40\nDuration                         : 1h 24mn\nBit rate mode                    : Variable\nBit rate                         : 128 Kbps\nChannel(s)                       : 2 channels\nChannel positions                : L R\nSampling rate                    : 48.0 KHz\nResolution                       : 16 bits\nStream size                      : 77.5 MiB (8%)\n\n\n\nGenre : Actie\nAvontuur\n\nWeblink : http://moviemeter.nl/film/54989\nWeblink : http://www.imdb.com/title/tt0436339\n\n***************************************** \n\n\nBrought to you by \n\n2Lions Team\n   &lt;a href=&quot;\nhttp://www.2lions.ons-forum.nl&quot; rel=&quot;nofollow&quot; target=&quot;_NEW&quot;&gt;\nhttp://www.2lions.ons-forum.nl&lt;/a&gt;\n\n2Lions-Team for all your Dutch MOVIES and more \n\n*****************************************\n\nDON T HIT AND RUN Niet gelijk afhaken als de film binnen is blijf seeden.","torrent":{"xt":"urn:btih:8930fc126c8e4b515fbc4c0d8062eecbba55676b","amp;dn":"G-Force+%282009%29+%28MPEG-4%29%28IPONE%29%28Dutch%29+2Lions-Team","amp;tr":["udp%3A%2F%2Ftracker.openbittorrent.com%3A80","udp%3A%2F%2Fopen.demonii.com%3A1337","udp%3A%2F%2Ftracker.coppersurfer.tk%3A6969","udp%3A%2F%2Fexodus.desync.com%3A6969"],"infoHash":"8930fc126c8e4b515fbc4c0d8062eecbba55676b","infoHashBuffer":{"type":"Buffer","data":[137,48,252,18,108,142,75,81,95,188,76,13,128,98,238,203,186,85,103,107]},"announce":[],"urlList":[]}}